<svg xmlns="http://www.w3.org/2000/svg" viewBox="0 0 64 64">
  <!-- Background -->
  <circle cx="32" cy="32" r="30" fill="#4B0082" />
  
  <!-- Quiz question mark -->
  <path d="M32 48c-1.1 0-2-.9-2-2s.9-2 2-2 2 .9 2 2-.9 2-2 2zm4-12c0 1.1-.9 2-2 2s-2-.9-2-2v-2c0-1.1.9-2 2-2 2.2 0 4-1.8 4-4s-1.8-4-4-4-4 1.8-4 4c0 1.1-.9 2-2 2s-2-.9-2-2c0-4.4 3.6-8 8-8s8 3.6 8 8c0 3.7-2.5 6.8-6 7.7V36z" fill="#FFDF00" />
  
  <!-- Subtle glow -->
  <circle cx="32" cy="32" r="28" fill="none" stroke="#6B21A8" stroke-width="4" opacity="0.3" />
</svg>
